<!--?xml version="1.0" standalone="no"?-->
              <svg id="sw-js-blob-svg" viewBox="0 0 100 100" xmlns="http://www.w3.org/2000/svg" version="1.1">
                    <defs> 
                        <linearGradient id="sw-gradient" x1="0" x2="1" y1="1" y2="0">
                            <stop id="stop1" stop-color="rgba(55, 149.934, 248, 1)" offset="0%"></stop>
                            <stop id="stop2" stop-color="rgba(251, 31, 199.144, 1)" offset="100%"></stop>
                        </linearGradient>
                    </defs>
                <path fill="url(#sw-gradient)" d="M21.3,-25.2C28.1,-24.3,34.6,-18.8,35,-12.6C35.3,-6.4,29.4,0.7,25.9,7.4C22.4,14.2,21.1,20.8,17.2,26.3C13.3,31.9,6.6,36.4,1.8,33.9C-3,31.4,-6.1,22,-10.6,16.6C-15,11.3,-21,10,-23.3,6.7C-25.7,3.3,-24.4,-2.1,-23,-7.7C-21.5,-13.3,-19.8,-19.1,-15.9,-21C-12,-22.9,-6,-21,0.6,-21.8C7.2,-22.7,14.4,-26.2,21.3,-25.2Z" width="100%" height="100%" transform="translate(50 50)" stroke-width="0" style="transition: all 0.3s ease 0s;"></path>
              </svg>